#!OML:ASF E:\id_vita\Project 1\Capture day 1\Session 1\Female.ASF
:FULLY-SPECIFIED
:DEGREES
624
root 35.0137 16.4956 1.12128 -172.828 -83.0907 183.324
lowerback -8.37435 1.15247 -4.07818
upperback -4.75703 1.65094 -0.534638
thorax -0.341365 0.826337 1.86525
lowerneck 16.8785 1.34909 -2.18126
upperneck -24.9776 2.35387 5.20169
head -10.9496 0.491705 1.945
rclavicle 8.49804e-015 -5.96354e-015
rhumerus -45.9407 -27.6282 -68.5519
rradius 21.1075
rwrist 22.3119
rhand -13.8539 8.11711
rfingers 7.12502
rthumb 12.2699 -21.5029
lclavicle 8.49804e-015 -5.96354e-015
lhumerus -102.88 44.991 -21.9888
lradius 11.5242
lwrist -92.9845
lhand -5.14899 26.0822
lfingers 7.12502
lthumb 20.6503 55.0037
rfemur -26.5048 -6.63051 19.0249
rtibia 46.3539
rfoot -7.17696 -10.6005
rtoes -24.7285
lfemur -16.3024 -7.58592 -23.7678
ltibia 31.068
lfoot -25.032 8.33662
ltoes 9.67856
625
root 35.0242 16.49 1.12777 -172.995 -83.1794 183.374
lowerback -8.33534 1.13359 -4.04471
upperback -4.64531 1.63076 -0.531974
thorax -0.244265 0.814772 1.84851
lowerneck 16.8943 1.30591 -2.16213
upperneck -25.0932 2.28078 5.13763
head -10.9913 0.461469 1.93127
rclavicle 1.86112e-014 -1.59028e-015
rhumerus -45.568 -27.5095 -68.8997
rradius 21.152
rwrist 22.2302
rhand -13.9319 8.02486
rfingers 7.12502
rthumb 12.1947 -21.5997
lclavicle 1.86112e-014 -1.59028e-015
lhumerus -103.608 44.9153 -23.0653
lradius 11.5444
lwrist -93.4768
lhand -5.09469 26.13
lfingers 7.12502
lthumb 20.7024 55.0458
rfemur -26.437 -6.66136 19.005
rtibia 46.3881
rfoot -7.13344 -10.8117
rtoes -24.8416
lfemur -16.1939 -7.62972 -23.7824
ltibia 31.0468
lfoot -25.0396 8.35817
ltoes 9.90235
626
root 35.0322 16.4873 1.13172 -173.437 -83.3107 183.718
lowerback -8.30936 1.06505 -4.04229
upperback -4.55739 1.54528 -0.471234
thorax -0.163591 0.772058 1.90405
lowerneck 16.755 1.3814 -2.39225
upperneck -25.0118 2.35247 5.2587
head -10.941 0.503927 2.00267
rclavicle -2.20154e-014 3.57812e-015
rhumerus -45.2249 -27.527 -69.0474
rradius 21.1001
rwrist 22.3562
rhand -14.0088 8.01515
rfingers 7.12502
rthumb 12.1206 -21.6138
lclavicle -2.20154e-014 3.57812e-015
lhumerus -105.061 44.672 -25.0844
lradius 11.5462
lwrist -94.5254
lhand -5.08928 25.6952
lfingers 7.12502
lthumb 20.7076 54.6104
rfemur -26.346 -6.68513 19.0302
rtibia 46.4162
rfoot -7.0421 -11.0967
rtoes -24.8526
lfemur -16.1078 -7.85042 -23.7406
ltibia 31.0431
lfoot -25.036 8.39159
ltoes 10.4455
627
root 35.0439 16.4865 1.13615 -174.115 -83.2908 184.446
lowerback -8.27869 1.09693 -3.93053
upperback -4.64235 1.57263 -0.495391
thorax -0.265939 0.785011 1.81669
lowerneck 16.9124 1.45041 -2.54853
upperneck -25.0203 2.45893 5.44707
head -10.9848 0.542875 2.08306
rclavicle -3.47873e-016 2.42517e-014
rhumerus -45.0937 -27.6544 -69.1451
rradius 20.9942
rwrist 22.5639
rhand -14.0648 7.99987
rfingers 7.12502
rthumb 12.0667 -21.6322
lclavicle -3.47873e-016 2.42517e-014
lhumerus -106.384 44.2663 -27.2715
lradius 11.5403
lwrist -95.8467
lhand -5.13463 25.2536
lfingers 7.12502
lthumb 20.6641 54.1736
rfemur -26.4605 -6.59503 19.1077
rtibia 46.4467
rfoot -6.9841 -10.9713
rtoes -24.7136
lfemur -16.2108 -8.02222 -23.6595
ltibia 31.0558
lfoot -25.0214 8.56917
ltoes 10.7255
628
root 35.0625 16.486 1.14533 -174.726 -83.0464 185.294
lowerback -8.43687 1.17916 -3.74435
upperback -4.70545 1.6699 -0.519468
thorax -0.243059 0.828314 1.69783
lowerneck 16.9989 1.5041 -2.67939
upperneck -25.1602 2.53927 5.59893
head -11.0622 0.568298 2.15265
rclavicle -1.36664e-015 1.98785e-015
rhumerus -44.7149 -27.6867 -69.4278
rradius 20.8894
rwrist 22.8409
rhand -14.0926 7.9739
rfingers 7.12502
rthumb 12.0398 -21.6598
lclavicle -1.36664e-015 1.98785e-015
lhumerus -106.798 44.1937 -27.9862
lradius 11.5836
lwrist -96.1188
lhand -5.13102 24.9974
lfingers 7.12502
lthumb 20.6675 53.917
rfemur -26.8695 -6.38085 19.2035
rtibia 46.4768
rfoot -6.92659 -10.6978
rtoes -24.692
lfemur -16.555 -8.28356 -23.5614
ltibia 31.0811
lfoot -24.8396 9.05393
ltoes 10.8967
629
root 35.0791 16.4849 1.15372 -174.691 -82.9533 185.421
lowerback -8.58915 1.2169 -3.64338
upperback -4.7443 1.71511 -0.563015
thorax -0.197312 0.846564 1.60307
lowerneck 17.0782 1.52064 -2.78423
upperneck -25.2069 2.57955 5.77065
head -11.1015 0.573009 2.22895
rclavicle -2.90226e-014 -1.98785e-015
rhumerus -44.4054 -27.6387 -69.755
rradius 20.8952
rwrist 22.928
rhand -14.09 7.94844
rfingers 7.12502
rthumb 12.0423 -21.6851
lclavicle -2.90226e-014 -1.98785e-015
lhumerus -106.73 44.2617 -27.9323
lradius 11.6261
lwrist -95.9823
lhand -5.03133 24.9905
lfingers 7.12502
lthumb 20.7633 53.8997
rfemur -27.1697 -6.33713 19.2139
rtibia 46.5089
rfoot -6.8674 -10.5812
rtoes -25.0271
lfemur -16.8257 -8.42327 -23.5425
ltibia 31.1136
lfoot -24.7249 9.24545
ltoes 10.6798
630
root 35.0891 16.4836 1.15699 -174.597 -83.0348 185.247
lowerback -8.59523 1.17552 -3.66861
upperback -4.69337 1.6659 -0.567761
thorax -0.139112 0.821683 1.60937
lowerneck 17.071 1.48961 -2.76317
upperneck -25.1427 2.54102 5.77045
head -11.0737 0.55524 2.22935
rclavicle 1.58034e-014 -4.37326e-015
rhumerus -43.999 -27.4443 -70.1957
rradius 20.8706
rwrist 22.8665
rhand -14.1981 7.81483
rfingers 7.12502
rthumb 11.9381 -21.8248
lclavicle 1.58034e-014 -4.37326e-015
lhumerus -106.342 44.4252 -27.3138
lradius 11.6458
lwrist -95.4684
lhand -4.98383 25.1705
lfingers 7.12502
lthumb 20.8089 54.0746
rfemur -27.1297 -6.40589 19.1814
rtibia 46.5321
rfoot -6.84672 -10.5817
rtoes -25.1465
lfemur -16.8125 -8.26303 -23.575
ltibia 31.1359
lfoot -24.8825 8.99096
ltoes 10.2422
